<svg width="20" height="20" viewBox="0 0 20 20" fill="none" xmlns="http://www.w3.org/2000/svg">
<path d="M7.25016 14.4167C7.09738 14.2639 7.021 14.0695 7.021 13.8334C7.021 13.5972 7.09738 13.4028 7.25016 13.25L10.5002 10L7.25016 6.75002C7.09738 6.59724 7.021 6.4028 7.021 6.16669C7.021 5.93058 7.09738 5.73613 7.25016 5.58335C7.40294 5.43058 7.59738 5.35419 7.8335 5.35419C8.06961 5.35419 8.26405 5.43058 8.41683 5.58335L12.2502 9.41669C12.3335 9.50002 12.3927 9.5903 12.4277 9.68752C12.4627 9.78474 12.4799 9.88891 12.4793 10C12.4793 10.1111 12.4618 10.2153 12.4268 10.3125C12.3918 10.4097 12.3329 10.5 12.2502 10.5834L8.41683 14.4167C8.26405 14.5695 8.06961 14.6459 7.8335 14.6459C7.59738 14.6459 7.40294 14.5695 7.25016 14.4167Z" fill="#848588"/>
</svg>
