<svg width="40" height="40" viewBox="0 0 40 40" fill="none" xmlns="http://www.w3.org/2000/svg">
<circle opacity="0.1" cx="20" cy="20" r="20" fill="#D89E46"/>
<g clip-path="url(#clip0_125_42)">
<path d="M29.0826 28.1775H10.9089C10.4068 28.1775 10 28.5843 10 29.0868C10 29.5885 10.4068 29.9953 10.9089 29.9953H29.0821C29.5843 29.9953 29.9911 29.5885 29.9911 29.0868C29.9906 28.5843 29.5838 28.1775 29.0826 28.1775Z" fill="#D89E46"/>
<path d="M12.0447 25.8145C11.5425 25.8145 11.1357 26.2213 11.1357 26.7234C11.1357 27.2256 11.5425 27.6328 12.0447 27.6328H27.9464C28.4486 27.6328 28.8554 27.2256 28.8554 26.7234C28.8554 26.2213 28.4486 25.8145 27.9464 25.8145H27.7196V17.636H27.9464C28.1979 17.636 28.4005 17.4326 28.4005 17.1819C28.4005 16.9313 28.1971 16.7279 27.9464 16.7279H12.0447C11.7936 16.7279 11.5906 16.9313 11.5906 17.1819C11.5906 17.4326 11.794 17.636 12.0447 17.636H12.2719V25.8141L12.0447 25.8145ZM25.9018 17.636V25.8141H23.1759V17.636H25.9018ZM21.3581 17.636V25.8141H18.6322V17.636H21.3581ZM14.0889 17.636H16.8148V25.8141H14.0889V17.636Z" fill="#D89E46"/>
<path d="M10.9089 15.9109H29.0822C29.0851 15.9109 29.0885 15.9109 29.0911 15.9109C29.5936 15.9109 30 15.5041 30 15.002C30 14.6029 29.743 14.2646 29.386 14.142L20.3692 10.0847C20.1321 9.97829 19.8611 9.97829 19.6236 10.0847L10.5362 14.1735C10.1451 14.3497 9.93023 14.7744 10.0204 15.1931C10.1102 15.6118 10.4804 15.9109 10.9089 15.9109Z" fill="#D89E46"/>
</g>
<defs>
<clipPath id="clip0_125_42">
<rect width="20" height="20" fill="white" transform="translate(10 10)"/>
</clipPath>
</defs>
</svg>
