<svg width="40" height="40" viewBox="0 0 40 40" fill="none" xmlns="http://www.w3.org/2000/svg">
<circle opacity="0.1" cx="20" cy="20" r="20" fill="#D89E46"/>
<path d="M29.5 23H29V19.6219C29 19.225 28.8406 18.8438 28.5594 18.5625L25.4375 15.4406C25.1562 15.1594 24.775 15 24.3781 15H23V13.5C23 12.6719 22.3281 12 21.5 12H13.5C12.6719 12 12 12.6719 12 13.5V15H10.25C10.1125 15 10 15.1125 10 15.25V15.75C10 15.8875 10.1125 16 10.25 16H18.75C18.8875 16 19 16.1125 19 16.25V16.75C19 16.8875 18.8875 17 18.75 17H11.25C11.1125 17 11 17.1125 11 17.25V17.75C11 17.8875 11.1125 18 11.25 18H17.75C17.8875 18 18 18.1125 18 18.25V18.75C18 18.8875 17.8875 19 17.75 19H10.25C10.1125 19 10 19.1125 10 19.25V19.75C10 19.8875 10.1125 20 10.25 20H16.75C16.8875 20 17 20.1125 17 20.25V20.75C17 20.8875 16.8875 21 16.75 21H12V25C12 26.6562 13.3438 28 15 28C16.6562 28 18 26.6562 18 25H22C22 26.6562 23.3438 28 25 28C26.6562 28 28 26.6562 28 25H29.5C29.775 25 30 24.775 30 24.5V23.5C30 23.225 29.775 23 29.5 23ZM15 26.5C14.1719 26.5 13.5 25.8281 13.5 25C13.5 24.1719 14.1719 23.5 15 23.5C15.8281 23.5 16.5 24.1719 16.5 25C16.5 25.8281 15.8281 26.5 15 26.5ZM25 26.5C24.1719 26.5 23.5 25.8281 23.5 25C23.5 24.1719 24.1719 23.5 25 23.5C25.8281 23.5 26.5 24.1719 26.5 25C26.5 25.8281 25.8281 26.5 25 26.5ZM27.5 20H23V16.5H24.3781L27.5 19.6219V20Z" fill="#D89E46"/>
</svg>
