<svg width="22" height="14" viewBox="0 0 22 14" fill="none" xmlns="http://www.w3.org/2000/svg">
<path d="M0.292786 7.707C0.105315 7.51947 0 7.26517 0 7C0 6.73484 0.105315 6.48053 0.292786 6.293L6.29279 0.293003C6.48139 0.110845 6.73399 0.0100503 6.99619 0.0123288C7.25838 0.0146072 7.5092 0.119776 7.6946 0.305184C7.88001 0.490593 7.98518 0.741405 7.98746 1.0036C7.98974 1.2658 7.88894 1.5184 7.70679 1.707L3.41379 6H20.9998C21.265 6 21.5194 6.10536 21.7069 6.2929C21.8944 6.48043 21.9998 6.73479 21.9998 7C21.9998 7.26522 21.8944 7.51957 21.7069 7.70711C21.5194 7.89465 21.265 8 20.9998 8H3.41379L7.70679 12.293C7.88894 12.4816 7.98974 12.7342 7.98746 12.9964C7.98518 13.2586 7.88001 13.5094 7.6946 13.6948C7.5092 13.8802 7.25838 13.9854 6.99619 13.9877C6.73399 13.99 6.48139 13.8892 6.29279 13.707L0.292786 7.707Z" fill="black"/>
</svg>
