<svg width="50" height="50" viewBox="0 0 50 50" fill="none" xmlns="http://www.w3.org/2000/svg">
<path d="M35.4167 43.75L29.6875 37.5L32.1042 35.0833L35.4167 38.3958L42.8958 30.9167L45.3125 33.8542M26.6667 43.75H10.4167C9.3116 43.75 8.25179 43.311 7.47039 42.5296C6.68899 41.7482 6.25 40.6884 6.25 39.5833V10.4167C6.25 8.10417 8.10417 6.25 10.4167 6.25H39.5833C40.6884 6.25 41.7482 6.68899 42.5296 7.47039C43.311 8.25179 43.75 9.3116 43.75 10.4167V26.6667C41.9167 25.6042 39.7708 25 37.5 25L35.4167 25.1667V22.9167H14.5833V27.0833H30.6042C28.8804 28.2197 27.4659 29.7664 26.4878 31.5846C25.5096 33.4027 24.9984 35.4354 25 37.5C25 39.7708 25.6042 41.9167 26.6667 43.75ZM25 31.25H14.5833V35.4167H25M35.4167 14.5833H14.5833V18.75H35.4167" fill="#944832"/>
</svg>
