<svg width="70" height="70" viewBox="0 0 70 70" fill="none" xmlns="http://www.w3.org/2000/svg">
<g clip-path="url(#clip0_125_589)">
<path d="M70 0H0V70H70V0Z" fill="white"/>
<path fill-rule="evenodd" clip-rule="evenodd" d="M17.4064 11.6667H52.593C53.8723 11.6666 54.9762 11.6666 55.89 11.7289C56.8519 11.7946 57.8141 11.939 58.765 12.3327C60.9087 13.2208 62.6123 14.9242 63.5002 17.0682C63.8939 18.0188 64.0383 18.981 64.1042 19.943C64.1663 20.8567 64.1663 21.9606 64.1663 23.24V46.76C64.1663 48.0392 64.1663 49.1432 64.1042 50.057C64.0383 51.0189 63.8939 51.9811 63.5002 52.9319C62.6123 55.0757 60.9087 56.7793 58.765 57.6672C57.8141 58.0609 56.8519 58.2053 55.89 58.2712C54.9762 58.3333 53.8723 58.3333 52.593 58.3333H17.4064C16.127 58.3333 15.0231 58.3333 14.1094 58.2712C13.1474 58.2053 12.1852 58.0609 11.2345 57.6672C9.09055 56.7793 7.38713 55.0757 6.49906 52.9319C6.10531 51.9811 5.96093 51.0189 5.89528 50.057C5.83295 49.1432 5.83298 48.0392 5.83301 46.76V23.24C5.83298 21.9607 5.83295 20.8567 5.89528 19.943C5.96093 18.981 6.10531 18.0188 6.49906 17.0682C7.38713 14.9242 9.09055 13.2208 11.2345 12.3327C12.1852 11.939 13.1474 11.7946 14.1094 11.7289C15.0231 11.6666 16.127 11.6666 17.4064 11.6667ZM12.5922 18.3102C13.653 17.0979 15.4956 16.975 16.7079 18.0358L33.079 32.3604C34.1786 33.3226 35.8207 33.3226 36.9203 32.3604L53.2915 18.0358C54.5037 16.975 56.3465 17.0979 57.407 18.3102C58.4678 19.5224 58.345 21.3651 57.1328 22.4258L40.7615 36.7506C37.4625 39.6372 32.5368 39.6372 29.2378 36.7506L12.8666 22.4258C11.6544 21.3651 11.5315 19.5224 12.5922 18.3102Z" fill="#B5B6B8"/>
</g>
<defs>
<clipPath id="clip0_125_589">
<rect width="70" height="70" fill="white"/>
</clipPath>
</defs>
</svg>
