<svg width="40" height="40" viewBox="0 0 40 40" fill="none" xmlns="http://www.w3.org/2000/svg">
<circle opacity="0.1" cx="20" cy="20" r="20" fill="#D89E46"/>
<path d="M20 9.5C15.05 9.5 11 13.55 11 18.5V20.75C11 22.85 12.65 24.5 14.75 24.5C15.2 24.5 15.5 24.2 15.5 23.75V17.75C15.5 17.3 15.2 17 14.75 17C13.925 17 13.175 17.3 12.575 17.75C12.95 14 16.175 11 20 11C23.825 11 27.05 13.925 27.425 17.75C26.825 17.3 26.075 17 25.25 17C24.8 17 24.5 17.3 24.5 17.75V23.75C24.5 24.2 24.8 24.5 25.25 24.5C25.7 24.5 26.225 24.425 26.6 24.2C25.775 25.7 24.5 26.9 22.925 27.575C22.775 26.675 22.025 25.925 21.05 25.925C20.075 25.925 19.25 26.75 19.25 27.725C19.25 28.25 19.475 28.775 19.925 29.15C20.3 29.45 20.675 29.6 21.125 29.6C21.2 29.6 21.35 29.6 21.425 29.6C25.7 29 29 25.175 29 20.75V18.5C29 13.55 24.95 9.5 20 9.5Z" fill="#D89E46"/>
</svg>
