<svg width="100" height="20" viewBox="0 0 100 20" fill="none" xmlns="http://www.w3.org/2000/svg">
<path fill-rule="evenodd" clip-rule="evenodd" d="M2.81215 0C0.691121 0 0 1.42857 0 2.85714C0.0334786 4.28571 0.762617 5.71429 2.81215 5.71429H16.8729L15.4668 4.28571H2.81215C1.40607 4.28571 1.40607 2.85714 1.40607 2.85714C1.40607 2.85714 1.40607 1.42857 2.81215 1.42857H15.4668L16.8729 0H2.81215ZM2.81215 2.5V3.21429H15.4668V2.5H2.81215ZM5.6243 7.14286C3.50327 7.14286 2.81215 8.57143 2.81215 10C2.84563 11.4286 3.57476 12.8571 5.6243 12.8571H19.685L18.279 11.4286H5.6243C4.21822 11.4286 4.21822 10 4.21822 10C4.21822 10 4.21822 8.57143 5.6243 8.57143H18.279L19.685 7.14286H5.6243ZM5.6243 9.64286V10.3571H18.279V9.64286H5.6243ZM2.81215 14.2857C0.691121 14.2857 0 15.7143 0 17.1429C0.0334786 18.5714 0.762617 20 2.81215 20H16.8729L15.4668 18.5714H2.81215C1.40607 18.5714 1.40607 17.1429 1.40607 17.1429C1.40607 17.1429 1.40607 15.7143 2.81215 15.7143H15.4668L16.8729 14.2857H2.81215ZM2.81215 16.7857V17.5H15.4668V16.7857H2.81215Z" fill="#944832"/>
<path d="M20.4724 19.6419V0.358127H27.3694C28.3702 0.358127 29.2718 0.56933 30.0742 0.991736C30.8856 1.40496 31.5257 2.00184 31.9945 2.78237C32.4723 3.55372 32.7112 4.4674 32.7112 5.52342C32.7112 5.99174 32.6436 6.46465 32.5084 6.94215C32.3732 7.41965 32.1658 7.85124 31.8863 8.23691C31.6068 8.61341 31.2462 8.89348 30.8044 9.07714C31.3904 9.22406 31.8683 9.49036 32.2379 9.87603C32.6076 10.2617 32.8961 10.7163 33.1034 11.2397C33.3108 11.7539 33.4505 12.2819 33.5227 12.8237C33.6038 13.3563 33.6444 13.8522 33.6444 14.3113C33.6444 15.3306 33.3964 16.2397 32.9006 17.0386C32.4047 17.8375 31.7375 18.4711 30.8991 18.9394C30.0696 19.4077 29.15 19.6419 28.1403 19.6419H20.4724ZM23.7722 16.7631H27.8022C28.3431 16.7631 28.83 16.6299 29.2627 16.3636C29.6955 16.0973 30.0426 15.73 30.3041 15.2617C30.5655 14.7934 30.6962 14.2608 30.6962 13.6639C30.6962 13.1497 30.5655 12.663 30.3041 12.2039C30.0426 11.7447 29.6955 11.3728 29.2627 11.0882C28.83 10.8035 28.3431 10.6612 27.8022 10.6612H23.7722V16.7631ZM23.7722 7.82369H26.9908C27.6579 7.82369 28.2259 7.61249 28.6947 7.19008C29.1726 6.76768 29.4115 6.20753 29.4115 5.50964C29.4115 4.76584 29.1726 4.20569 28.6947 3.8292C28.2259 3.44353 27.6579 3.25069 26.9908 3.25069H23.7722V7.82369Z" fill="#944832"/>
<path d="M43.0178 20C41.7376 20 40.534 19.7429 39.407 19.2287C38.28 18.7052 37.2883 17.9844 36.4318 17.0661C35.5753 16.1478 34.9037 15.0872 34.4168 13.8843C33.93 12.6722 33.6865 11.3774 33.6865 10C33.6865 8.62259 33.93 7.33242 34.4168 6.12948C34.9037 4.91736 35.5753 3.85216 36.4318 2.93389C37.2883 2.01561 38.28 1.29936 39.407 0.785124C40.534 0.261708 41.7376 0 43.0178 0C44.307 0 45.5151 0.261708 46.6421 0.785124C47.7691 1.29936 48.7608 2.01561 49.6173 2.93389C50.4738 3.85216 51.1409 4.91736 51.6187 6.12948C52.1056 7.33242 52.349 8.62259 52.349 10C52.349 11.3774 52.1056 12.6722 51.6187 13.8843C51.1409 15.0872 50.4738 16.1478 49.6173 17.0661C48.7608 17.9844 47.7691 18.7052 46.6421 19.2287C45.5151 19.7429 44.307 20 43.0178 20ZM43.0178 16.6391C43.8472 16.6391 44.6271 16.4646 45.3574 16.1157C46.0876 15.7668 46.7277 15.2893 47.2777 14.6832C47.8367 14.068 48.2694 13.3609 48.576 12.562C48.8915 11.7631 49.0493 10.9091 49.0493 10C49.0493 9.09091 48.8915 8.23692 48.576 7.43802C48.2604 6.62994 47.8231 5.92287 47.2642 5.3168C46.7142 4.71074 46.0741 4.23324 45.3438 3.8843C44.6226 3.53535 43.8472 3.36088 43.0178 3.36088C42.1883 3.36088 41.4085 3.53535 40.6782 3.8843C39.9479 4.23324 39.3033 4.71534 38.7443 5.33058C38.1944 5.93664 37.7616 6.63912 37.4461 7.43802C37.1395 8.23692 36.9863 9.09091 36.9863 10C36.9863 10.9183 37.1441 11.7769 37.4596 12.5758C37.7752 13.3747 38.2079 14.0817 38.7579 14.697C39.3168 15.303 39.957 15.7805 40.6782 16.1295C41.4085 16.4692 42.1883 16.6391 43.0178 16.6391Z" fill="#944832"/>
<path d="M62.029 20C60.7488 20 59.5452 19.7429 58.4183 19.2287C57.2913 18.7052 56.2996 17.9844 55.4431 17.0661C54.5866 16.1478 53.9149 15.0872 53.4281 13.8843C52.9412 12.6722 52.6978 11.3774 52.6978 10C52.6978 8.62259 52.9412 7.33242 53.4281 6.12948C53.9149 4.91736 54.5866 3.85216 55.4431 2.93389C56.2996 2.01561 57.2913 1.29936 58.4183 0.785124C59.5452 0.261708 60.7488 0 62.029 0C63.3183 0 64.5264 0.261708 65.6534 0.785124C66.7803 1.29936 67.772 2.01561 68.6285 2.93389C69.485 3.85216 70.1522 4.91736 70.63 6.12948C71.1169 7.33242 71.3603 8.62259 71.3603 10C71.3603 11.3774 71.1169 12.6722 70.63 13.8843C70.1522 15.0872 69.485 16.1478 68.6285 17.0661C67.772 17.9844 66.7803 18.7052 65.6534 19.2287C64.5264 19.7429 63.3183 20 62.029 20ZM62.029 16.6391C62.8585 16.6391 63.6383 16.4646 64.3686 16.1157C65.0989 15.7668 65.739 15.2893 66.289 14.6832C66.8479 14.068 67.2807 13.3609 67.5872 12.562C67.9028 11.7631 68.0605 10.9091 68.0605 10C68.0605 9.09091 67.9028 8.23692 67.5872 7.43802C67.2717 6.62994 66.8344 5.92287 66.2754 5.3168C65.7255 4.71074 65.0854 4.23324 64.3551 3.8843C63.6338 3.53535 62.8585 3.36088 62.029 3.36088C61.1996 3.36088 60.4197 3.53535 59.6895 3.8843C58.9592 4.23324 58.3146 4.71534 57.7556 5.33058C57.2056 5.93664 56.7729 6.63912 56.4573 7.43802C56.1508 8.23692 55.9975 9.09091 55.9975 10C55.9975 10.9183 56.1553 11.7769 56.4709 12.5758C56.7864 13.3747 57.2192 14.0817 57.7691 14.697C58.3281 15.303 58.9682 15.7805 59.6895 16.1295C60.4197 16.4692 61.1996 16.6391 62.029 16.6391Z" fill="#944832"/>
<path d="M86.0582 19.6419H81.7577L76.4429 12.0799L75.5233 13.1956V19.6419H72.2236V0.358127H75.5233V7.97521L81.7847 0.358127H86.0987L78.5932 9.44904L86.0582 19.6419Z" fill="#944832"/>
<path d="M92.9001 20C91.8543 20 90.8491 19.8347 89.8844 19.5041C88.9287 19.1644 88.0903 18.6823 87.369 18.0579C86.6478 17.4242 86.1294 16.6667 85.8138 15.7851L88.9107 14.6281C89.0369 14.9954 89.2939 15.3306 89.6815 15.6336C90.0692 15.9366 90.5425 16.18 91.1015 16.3636C91.6605 16.5473 92.26 16.6391 92.9001 16.6391C93.5583 16.6391 94.1713 16.5381 94.7393 16.3361C95.3163 16.1249 95.7806 15.8356 96.1323 15.4683C96.4839 15.0918 96.6597 14.6556 96.6597 14.1598C96.6597 13.6547 96.4749 13.2415 96.1052 12.9201C95.7356 12.5895 95.2623 12.3278 94.6852 12.135C94.1082 11.9422 93.5132 11.7952 92.9001 11.6942C91.5568 11.483 90.3532 11.157 89.2894 10.7163C88.2255 10.2755 87.3825 9.66483 86.7605 8.8843C86.1474 8.10377 85.8409 7.09366 85.8409 5.854C85.8409 4.68779 86.1699 3.6685 86.8281 2.79614C87.4862 1.92378 88.3517 1.24426 89.4246 0.757577C90.4975 0.270892 91.656 0.0275495 92.9001 0.0275495C93.937 0.0275495 94.9377 0.192839 95.9024 0.523417C96.8671 0.853995 97.71 1.33609 98.4313 1.9697C99.1615 2.60331 99.6844 3.36547 100 4.2562L96.8896 5.39945C96.7634 5.03214 96.5064 4.69697 96.1187 4.39394C95.7311 4.09091 95.2577 3.85216 94.6988 3.67769C94.1398 3.49403 93.5403 3.40221 92.9001 3.40221C92.26 3.39302 91.6515 3.49862 91.0745 3.71901C90.5065 3.93021 90.0422 4.21947 89.6815 4.58678C89.3209 4.95409 89.1406 5.37649 89.1406 5.854C89.1406 6.46924 89.3074 6.93297 89.641 7.24518C89.9836 7.55739 90.4389 7.78696 91.0068 7.93389C91.5748 8.07163 92.2059 8.20018 92.9001 8.31956C94.1623 8.52158 95.3299 8.86134 96.4027 9.33884C97.4756 9.81635 98.3366 10.4545 98.9857 11.2534C99.6349 12.0432 99.9594 13.0119 99.9594 14.1598C99.9594 15.326 99.6349 16.3499 98.9857 17.2314C98.3366 18.1038 97.4756 18.7833 96.4027 19.27C95.3299 19.7567 94.1623 20 92.9001 20Z" fill="#944832"/>
</svg>
