<svg width="152" height="30" viewBox="0 0 152 30" fill="none" xmlns="http://www.w3.org/2000/svg">
<path fill-rule="evenodd" clip-rule="evenodd" d="M4.27447 0C1.0505 0 0 2.14286 0 4.28571C0.0508875 6.42857 1.15918 8.57143 4.27447 8.57143H25.6468L23.5096 6.42857H4.27447C2.13723 6.42857 2.13723 4.28571 2.13723 4.28571C2.13723 4.28571 2.13723 2.14286 4.27447 2.14286H23.5096L25.6468 0H4.27447ZM4.27447 3.75V4.82143H23.5096V3.75H4.27447ZM8.54893 10.7143C5.32497 10.7143 4.27447 12.8571 4.27447 15C4.32535 17.1429 5.43364 19.2857 8.54893 19.2857H29.9213L27.784 17.1429H8.54893C6.4117 17.1429 6.4117 15 6.4117 15C6.4117 15 6.4117 12.8571 8.54893 12.8571H27.784L29.9213 10.7143H8.54893ZM8.54893 14.4643V15.5357H27.784V14.4643H8.54893ZM4.27447 21.4286C1.0505 21.4286 0 23.5714 0 25.7143C0.0508875 27.8571 1.15918 30 4.27447 30H25.6468L23.5096 27.8571H4.27447C2.13723 27.8571 2.13723 25.7143 2.13723 25.7143C2.13723 25.7143 2.13723 23.5714 4.27447 23.5714H23.5096L25.6468 21.4286H4.27447ZM4.27447 25.1786V26.25H23.5096V25.1786H4.27447Z" fill="white"/>
<path d="M31.1181 29.4628V0.537191H41.6016C43.1227 0.537191 44.4931 0.853995 45.7127 1.4876C46.9461 2.10744 47.919 3.00276 48.6316 4.17355C49.3579 5.33058 49.7211 6.7011 49.7211 8.28512C49.7211 8.98761 49.6183 9.69697 49.4128 10.4132C49.2072 11.1295 48.892 11.7769 48.4672 12.3554C48.0424 12.9201 47.4942 13.3402 46.8227 13.6157C47.7135 13.8361 48.4398 14.2355 49.0016 14.8141C49.5635 15.3926 50.002 16.0744 50.3172 16.8595C50.6324 17.6309 50.8448 18.4229 50.9544 19.2355C51.0778 20.0344 51.1394 20.7782 51.1394 21.4669C51.1394 22.9959 50.7626 24.3595 50.0089 25.5579C49.2552 26.7562 48.2411 27.7066 46.9666 28.4091C45.7059 29.1116 44.3081 29.4628 42.7732 29.4628H31.1181ZM36.1337 25.1446H42.2593C43.0816 25.1446 43.8216 24.9449 44.4794 24.5455C45.1371 24.146 45.6648 23.595 46.0622 22.8926C46.4596 22.1901 46.6583 21.3912 46.6583 20.4959C46.6583 19.7245 46.4596 18.9945 46.0622 18.3058C45.6648 17.6171 45.1371 17.0592 44.4794 16.6322C43.8216 16.2052 43.0816 15.9917 42.2593 15.9917H36.1337V25.1446ZM36.1337 11.7355H41.026C42.0401 11.7355 42.9034 11.4187 43.616 10.7851C44.3423 10.1515 44.7055 9.3113 44.7055 8.26446C44.7055 7.14876 44.3423 6.30854 43.616 5.7438C42.9034 5.16529 42.0401 4.87603 41.026 4.87603H36.1337V11.7355Z" fill="white"/>
<path d="M65.387 30C63.4411 30 61.6116 29.6143 59.8986 28.843C58.1857 28.0579 56.6782 26.9766 55.3764 25.5992C54.0745 24.2218 53.0536 22.6309 52.3136 20.8264C51.5735 19.0083 51.2035 17.0661 51.2035 15C51.2035 12.9339 51.5735 10.9986 52.3136 9.19422C53.0536 7.37603 54.0745 5.77824 55.3764 4.40083C56.6782 3.02342 58.1857 1.94904 59.8986 1.17769C61.6116 0.392562 63.4411 0 65.387 0C67.3467 0 69.183 0.392562 70.896 1.17769C72.609 1.94904 74.1164 3.02342 75.4182 4.40083C76.7201 5.77824 77.7342 7.37603 78.4605 9.19422C79.2005 10.9986 79.5705 12.9339 79.5705 15C79.5705 17.0661 79.2005 19.0083 78.4605 20.8264C77.7342 22.6309 76.7201 24.2218 75.4182 25.5992C74.1164 26.9766 72.609 28.0579 70.896 28.843C69.183 29.6143 67.3467 30 65.387 30ZM65.387 24.9587C66.6478 24.9587 67.8332 24.697 68.9432 24.1736C70.0532 23.6501 71.0262 22.9339 71.8621 22.0248C72.7117 21.1019 73.3695 20.0413 73.8355 18.843C74.3151 17.6446 74.5549 16.3636 74.5549 15C74.5549 13.6364 74.3151 12.3554 73.8355 11.157C73.3558 9.94491 72.6912 8.8843 71.8415 7.97521C71.0056 7.06612 70.0326 6.34986 68.9226 5.82645C67.8263 5.30303 66.6478 5.04132 65.387 5.04132C64.1263 5.04132 62.9409 5.30303 61.8309 5.82645C60.7209 6.34986 59.741 7.073 58.8914 7.99587C58.0555 8.90496 57.3977 9.95868 56.918 11.157C56.4521 12.3554 56.2192 13.6364 56.2192 15C56.2192 16.3774 56.459 17.6653 56.9386 18.8636C57.4182 20.062 58.076 21.1226 58.912 22.0455C59.7616 22.9545 60.7346 23.6708 61.8309 24.1942C62.9409 24.7039 64.1263 24.9587 65.387 24.9587Z" fill="white"/>
<path d="M94.2841 30C92.3382 30 90.5087 29.6143 88.7958 28.843C87.0828 28.0579 85.5753 26.9766 84.2735 25.5992C82.9716 24.2218 81.9507 22.6309 81.2107 20.8264C80.4707 19.0083 80.1007 17.0661 80.1007 15C80.1007 12.9339 80.4707 10.9986 81.2107 9.19422C81.9507 7.37603 82.9716 5.77824 84.2735 4.40083C85.5753 3.02342 87.0828 1.94904 88.7958 1.17769C90.5087 0.392562 92.3382 0 94.2841 0C96.2438 0 98.0801 0.392562 99.7931 1.17769C101.506 1.94904 103.013 3.02342 104.315 4.40083C105.617 5.77824 106.631 7.37603 107.358 9.19422C108.098 10.9986 108.468 12.9339 108.468 15C108.468 17.0661 108.098 19.0083 107.358 20.8264C106.631 22.6309 105.617 24.2218 104.315 25.5992C103.013 26.9766 101.506 28.0579 99.7931 28.843C98.0801 29.6143 96.2438 30 94.2841 30ZM94.2841 24.9587C95.5449 24.9587 96.7303 24.697 97.8403 24.1736C98.9503 23.6501 99.9233 22.9339 100.759 22.0248C101.609 21.1019 102.267 20.0413 102.733 18.843C103.212 17.6446 103.452 16.3636 103.452 15C103.452 13.6364 103.212 12.3554 102.733 11.157C102.253 9.94491 101.588 8.8843 100.739 7.97521C99.9027 7.06612 98.9297 6.34986 97.8197 5.82645C96.7234 5.30303 95.5449 5.04132 94.2841 5.04132C93.0234 5.04132 91.838 5.30303 90.728 5.82645C89.618 6.34986 88.6382 7.073 87.7885 7.99587C86.9526 8.90496 86.2948 9.95868 85.8152 11.157C85.3492 12.3554 85.1163 13.6364 85.1163 15C85.1163 16.3774 85.3561 17.6653 85.8357 18.8636C86.3154 20.062 86.9731 21.1226 87.8091 22.0455C88.6587 22.9545 89.6317 23.6708 90.728 24.1942C91.838 24.7039 93.0234 24.9587 94.2841 24.9587Z" fill="white"/>
<path d="M130.808 29.4628H124.272L116.193 18.1198L114.795 19.7934V29.4628H109.78V0.537191H114.795V11.9628L124.313 0.537191H130.87L119.462 14.1736L130.808 29.4628Z" fill="white"/>
<path d="M141.208 30C139.619 30 138.091 29.7521 136.624 29.2562C135.172 28.7466 133.897 28.0234 132.801 27.0868C131.705 26.1364 130.917 25 130.437 23.6777L135.144 21.9422C135.336 22.4931 135.727 22.9959 136.316 23.4504C136.905 23.905 137.625 24.27 138.474 24.5455C139.324 24.8209 140.235 24.9587 141.208 24.9587C142.209 24.9587 143.14 24.8072 144.004 24.5041C144.881 24.1873 145.587 23.7534 146.121 23.2025C146.655 22.6377 146.923 21.9835 146.923 21.2397C146.923 20.4821 146.642 19.8623 146.08 19.3802C145.518 18.8843 144.799 18.4917 143.922 18.2025C143.045 17.9132 142.14 17.6928 141.208 17.5413C139.166 17.2245 137.337 16.7355 135.72 16.0744C134.103 15.4132 132.821 14.4972 131.876 13.3264C130.944 12.1556 130.478 10.6405 130.478 8.78099C130.478 7.03168 130.978 5.50276 131.979 4.19422C132.979 2.88568 134.295 1.86639 135.925 1.13637C137.556 0.406338 139.317 0.0413242 141.208 0.0413242C142.784 0.0413242 144.305 0.289258 145.772 0.785126C147.238 1.28099 148.519 2.00413 149.616 2.95455C150.726 3.90496 151.52 5.04821 152 6.3843L147.272 8.09918C147.08 7.54821 146.69 7.04546 146.1 6.59091C145.511 6.13636 144.792 5.77824 143.942 5.51653C143.092 5.24105 142.181 5.10331 141.208 5.10331C140.235 5.08953 139.31 5.24794 138.433 5.57851C137.57 5.89532 136.864 6.3292 136.316 6.88017C135.768 7.43113 135.494 8.06474 135.494 8.78099C135.494 9.70386 135.747 10.3995 136.254 10.8678C136.775 11.3361 137.467 11.6804 138.33 11.9008C139.194 12.1074 140.153 12.3003 141.208 12.4793C143.127 12.7824 144.901 13.292 146.532 14.0083C148.163 14.7245 149.472 15.6818 150.458 16.8802C151.445 18.0647 151.938 19.5179 151.938 21.2397C151.938 22.989 151.445 24.5248 150.458 25.8471C149.472 27.1556 148.163 28.1749 146.532 28.905C144.901 29.635 143.127 30 141.208 30Z" fill="white"/>
</svg>
